<?xml version="1.0" encoding="UTF-8"?>
<svg id="Artboard_2" data-name="Artboard 2" xmlns="http://www.w3.org/2000/svg" viewBox="0 0 257.1 269.28">
  <defs>
    <style>
      .cls-1 {
        fill: #9d8420;
      }

      .cls-2 {
        fill: #9d8420;
      }
    </style>
  </defs>
  <g>
    <path class="cls-1" d="M127.59,232.27c-11.7-6.4-11.55-38.69-11.55-39.02v-1.42s-.89,1.1-.89,1.1c-6.81,8.36-20.98,9.42-25.66,9.53,13.18-9.61,19.96-23.92,21.76-28.19l.29-.69h-19.93v-10.68h11.9l-.04-.54c-.92-11.74-14.5-23.51-21.87-23.68h-.11c-1.13,0-2.01.44-2.6,1.31-2.56,3.8,1.45,15.27,2.8,18.83-23.25-8.89-30.61-24.64-30.68-24.8-3.59-12.15-2.89-21.83,2.11-28.71,7.43-10.22,22.03-10.71,22.17-10.71.23,0,.45-.01.67-.01,29.43,0,39.25,60.93,40.27,67.87l.06.43h4.04l.02-.48c.32-7.26-.22-26.37-12.21-47.08-.04-.09-5.63-11.13-6.01-27.25-.35-14.81,3.77-37.06,25.27-59.06,21.5,22.01,25.62,44.25,25.27,59.06-.38,16.12-5.97,27.16-6.02,27.27-11.92,20.61-12.5,39.78-12.2,47.06l.02.48h6.2l.06-.43c.09-.69,9.46-68.64,40.39-68.64.22,0,.44,0,.66.01.15,0,14.74.49,22.17,10.72,5,6.88,5.71,16.56,2.1,28.76-.05.1-7.41,15.84-30.65,24.74,1.34-3.56,5.36-15.04,2.8-18.83-.59-.87-1.46-1.32-2.6-1.32h-.11c-7.63.18-21.65,12.58-22,24.48v.51s9.97,0,9.97,0v10.68h-19.83l.29.69c1.78,4.25,8.48,18.5,21.76,28.19-4.67-.12-18.84-1.17-25.66-9.53l-.9-1.1v1.42c.02.33.16,32.62-11.54,39.02Z"/>
    <path d="M127.42,29.75c21.06,21.75,25.1,43.67,24.77,58.29-.36,16.01-5.91,26.99-5.94,27.05-12,20.75-12.58,40.03-12.28,47.35l.04.96h7.12s.12-.87.12-.87c.02-.17,2.35-17.38,8.5-34.35,3.59-9.91,7.76-17.79,12.4-23.43,5.68-6.91,12.07-10.42,18.99-10.42.21,0,.43,0,.65,0,.14,0,14.5.5,21.78,10.52,4.89,6.73,5.58,16.24,2.04,28.25-.49,1.02-7.8,15.48-29.33,24.08,1.64-4.51,4.85-14.54,2.35-18.24-.68-1.01-1.72-1.54-3.01-1.54h-.12c-3.91.09-9.43,3.22-14.08,7.97-5.18,5.3-8.25,11.49-8.4,16.99l-.03,1.03h10v9.68h-20.09l.58,1.39c1.73,4.14,8.11,17.71,20.64,27.43-5.67-.32-17.65-1.88-23.69-9.28l-1.8-2.21.02,2.85c0,.32.14,31.87-11.05,38.44-11.19-6.57-11.05-38.12-11.05-38.44l.02-2.85-1.8,2.21c-6.03,7.4-18.02,8.97-23.69,9.28,12.44-9.66,18.88-23.28,20.64-27.43l.59-1.39h-20.18v-9.68h11.95l-.08-1.08c-.68-8.69-11.98-23.9-22.36-24.14h-.12c-1.29,0-2.33.53-3.01,1.53-2.49,3.7.71,13.73,2.35,18.24-21.54-8.61-28.85-23.07-29.33-24.08-3.54-12.02-2.86-21.52,2.03-28.26,7.28-10.02,21.64-10.51,21.79-10.51.22,0,.44-.01.65-.01,12.04,0,22.2,10.33,30.2,30.71,6.35,16.18,9.09,33.44,9.58,36.73l.13.85h4.95l.04-.96c.32-7.3-.23-26.53-12.25-47.31-.06-.11-5.6-11.09-5.97-27.1-.33-14.62,3.72-36.54,24.77-58.28M127.42,28.32l-.12.12c-42.3,43.02-19.57,87.15-19.57,87.15,12.06,20.85,12.43,40.2,12.14,46.81h-3.13c-1.1-7.48-11.01-68.3-40.76-68.3-.23,0-.45,0-.68.01,0,0-36.35.89-24.73,40.12,0,0,7.43,16.46,32,25.45,0,0-8.28-20.51-1.07-20.51.03,0,.06,0,.1,0,7.21.17,20.49,11.76,21.39,23.22h-11.86v11.68h19.68c-1.68,3.98-8.77,19.24-22.88,28.89,0,0,.21,0,.59,0,3.3,0,19.5-.48,27.03-9.73,0,0-.29,33.19,12,39.57v.06s.03-.03.05-.03.03.03.05.03v-.06c12.3-6.38,12-39.57,12-39.57,7.54,9.25,23.74,9.73,27.03,9.73.38,0,.59,0,.59,0-14.11-9.66-21.22-24.91-22.88-28.89h19.58v-11.68h-9.97c.34-11.71,14.14-23.82,21.51-23.99.03,0,.07,0,.1,0,7.21,0-1.07,20.51-1.07,20.51,24.58-9,32-25.45,32-25.45,11.6-39.21-24.73-40.12-24.73-40.12-.22,0-.45-.01-.67-.01-31.72,0-40.88,69.07-40.88,69.07h-5.28c-.28-6.61.09-25.98,12.14-46.81,0,0,22.73-44.11-19.57-87.15l-.12-.12h0Z"/>
  </g>
  <g>
    <g>
      <polygon points="13.15 254.88 7.23 242.73 6.89 247.8 6.13 254 .14 253.28 2.58 233.5 8.49 234.23 14.38 246.39 14.71 241.32 15.48 235.08 21.46 235.83 19.03 255.6 13.15 254.88"/>
      <path class="cls-2" d="M2.69,233.64l5.71.71,5.66,11.67.41.85.06-.94.3-4.58.75-6.12,5.74.71-2.41,19.53-5.69-.7-5.68-11.67-.41-.85-.06.94-.3,4.59-.75,6.08-5.74-.69,2.41-19.53M2.48,233.36L0,253.39l6.24.75.78-6.32.31-4.6,5.74,11.79,6.07.75,2.47-20.02-6.24-.78-.78,6.37-.3,4.6-5.71-11.8-6.09-.75h0Z"/>
    </g>
    <g>
      <path d="M28.82,254.98c-2.52,0-4.5-.84-5.9-2.51-.85-1-1.39-2.3-1.61-3.88-.07-.52-.11-1.01-.11-1.48,0-2.57.99-4.54,2.94-5.86,1.12-.78,2.51-1.29,4.11-1.5.54-.07,1.09-.11,1.62-.11,1.81,0,3.37.45,4.62,1.34,1.61,1.12,2.58,2.82,2.89,5.05.36,2.5-.13,4.55-1.47,6.08-1.61,1.9-4,2.87-7.09,2.87ZM29.18,243.34c-.11,0-.21,0-.32.02-.93.14-1.58.67-1.93,1.58-.26.72-.33,1.59-.2,2.58.35,2.48,1.28,3.74,2.77,3.74h0c.13,0,.26,0,.39-.03,1.42-.21,2.13-1.26,2.13-3.12,0-.39-.04-.82-.11-1.32-.13-.96-.42-1.76-.85-2.38-.49-.71-1.12-1.07-1.87-1.07Z"/>
      <path class="cls-2" d="M29.87,239.77c1.79,0,3.32.44,4.54,1.31,1.58,1.1,2.53,2.77,2.84,4.96.36,2.46-.13,4.48-1.44,5.99-1.59,1.87-3.94,2.82-6.99,2.82-2.48,0-4.43-.83-5.8-2.46-.83-.98-1.36-2.26-1.58-3.81-.07-.51-.11-1-.11-1.46,0-2.52.97-4.46,2.89-5.76,1.11-.77,2.47-1.27,4.05-1.48.54-.07,1.08-.11,1.6-.11M29.5,251.39c.13,0,.27,0,.41-.03,1.49-.22,2.24-1.31,2.24-3.24,0-.4-.04-.84-.11-1.34-.13-.98-.43-1.8-.87-2.44-.52-.75-1.18-1.13-1.98-1.13-.11,0-.22,0-.35.02-.98.14-1.66.7-2.03,1.66-.27.74-.34,1.63-.21,2.64.36,2.55,1.33,3.85,2.9,3.85M29.87,239.52c-.54,0-1.08.04-1.64.11-1.63.22-3.01.73-4.16,1.53-2,1.35-3,3.34-3,5.96,0,.48.04.98.11,1.5.22,1.61.77,2.92,1.64,3.94,1.42,1.7,3.42,2.55,5.99,2.55,3.14,0,5.54-.97,7.18-2.91,1.37-1.57,1.87-3.63,1.5-6.18-.31-2.28-1.29-3.98-2.94-5.13-1.28-.91-2.84-1.36-4.69-1.36h0ZM29.5,251.14c-1.43,0-2.31-1.21-2.65-3.63-.13-.98-.06-1.82.19-2.52.33-.87.94-1.37,1.83-1.5.11-.01.21-.02.31-.02.71,0,1.3.34,1.77,1.02.42.61.7,1.39.83,2.33.07.48.11.91.11,1.3,0,1.8-.68,2.79-2.03,3-.13.02-.25.03-.37.03h0Z"/>
    </g>
    <g>
      <path d="M37.3,240.66l4.97-.5.33,2.93h.21l.05-.1c.55-2.29,1.84-3.51,3.97-3.73.1-.02.21-.03.35-.03.11,0,.21,0,.3.02l.58,5.5h-1.05c-2.19.23-3.29,1.48-3.29,3.73,0,.32.02.66.06,1.01l.51,4.95-5.49.56-1.5-14.34Z"/>
      <path class="cls-2" d="M47.18,239.35c.07,0,.13,0,.19,0l.56,5.26h-.94c-2.25.24-3.39,1.53-3.39,3.85,0,.33.02.67.06,1.02l.5,4.83-5.24.53-1.47-14.09,4.72-.48.31,2.69.05.22h.42l.05-.19c.53-2.24,1.79-3.42,3.88-3.64.07-.02.18-.02.31-.02M47.18,239.1c-.15,0-.27,0-.36.03-2.16.22-3.52,1.5-4.07,3.83h-.03l-.34-2.94-5.22.53,1.53,14.59,5.74-.58-.53-5.08c-.04-.35-.06-.68-.06-1,0-2.18,1.05-3.38,3.16-3.61h1.19l-.61-5.74c-.13-.02-.27-.03-.42-.03h0Z"/>
    </g>
    <g>
      <path d="M57.05,255.06c-1.08-.06-2.14-.15-3.15-.27-1.24-.15-2.16-.34-2.74-.57-1-.41-1.57-1.02-1.73-1.85-.07-.33-.11-.74-.11-1.23,0-.58.05-1.28.16-2.09l.74-6.23-2.02-.24.38-3.08,2.11.28.56-4.55,5.41.66-.56,4.55,2.75.33-.38,3.08-2.75-.36-.68,5.42c-.06.48-.06.85,0,1.15.1.55.67.9,1.69,1.04l.79.1-.47,3.86Z"/>
      <path class="cls-2" d="M51.36,235.36l5.16.63-.52,4.3-.03.25.25.03,2.5.3-.35,2.83-2.5-.33-.25-.03-.03.25-.67,5.3c-.06.49-.06.88,0,1.18.11.61.72,1,1.8,1.14l.67.08-.44,3.63c-1.03-.06-2.05-.14-3.02-.26-1.23-.14-2.14-.33-2.71-.57-.96-.4-1.5-.97-1.65-1.77-.07-.31-.1-.71-.1-1.2,0-.57.05-1.27.16-2.08l.72-6.11.03-.25-.25-.03-1.78-.21.35-2.83,1.86.24.25.03.03-.25.52-4.3M51.14,235.08l-.56,4.55-2.11-.28-.42,3.33,2.03.24-.72,6.11c-.11.81-.17,1.52-.17,2.11,0,.5.04.91.11,1.25.17.87.77,1.52,1.8,1.94.59.24,1.52.43,2.77.58,1.05.13,2.14.22,3.27.28l.5-4.1-.91-.11c-.96-.13-1.49-.44-1.58-.94-.06-.28-.06-.65,0-1.11l.67-5.3,2.75.36.42-3.33-2.75-.33.56-4.55-5.66-.69h0Z"/>
    </g>
    <g>
      <path d="M58.66,235.47l5.49-.58.8,7.53.19-.31c.99-1.58,2.36-2.48,4.07-2.66.31-.02.61-.03.9-.03,1.96,0,3.39.77,4.25,2.29.51.87.83,1.98.96,3.31l.93,8.61-5.49.58-.82-7.59c-.18-1.76-.9-2.65-2.13-2.65-.1,0-.2,0-.31.02-1.38.14-2.08.99-2.08,2.54,0,.26.02.55.06.85l.76,7.32-5.49.59-2.08-19.83Z"/>
      <path class="cls-2" d="M64.04,235.02l.75,7.05.08.72.38-.61c.97-1.55,2.31-2.43,3.96-2.6.31-.02.61-.03.9-.03,1.94,0,3.29.73,4.14,2.23.5.85.81,1.95.94,3.26l.92,8.49-5.24.56-.81-7.46c-.19-1.84-.95-2.77-2.26-2.77-.1,0-.21,0-.32.02-1,.1-2.19.64-2.19,2.67,0,.27.02.56.06.86l.75,7.2-5.24.56-2.06-19.58,5.24-.56M64.26,234.75l-5.74.61,2.11,20.08,5.74-.61-.78-7.45c-.04-.3-.06-.57-.06-.83,0-1.48.66-2.29,1.97-2.42.1-.01.2-.02.29-.02,1.17,0,1.84.85,2.01,2.54l.83,7.71,5.74-.61-.94-8.74c-.13-1.35-.45-2.47-.97-3.36-.89-1.57-2.34-2.36-4.35-2.36-.29,0-.6,0-.91.03-1.76.19-3.14,1.09-4.16,2.72l-.78-7.29h0Z"/>
    </g>
    <g>
      <polygon points="76.35 235.44 91.52 233.86 91.99 238.25 83.06 239.21 83.48 243.12 90.58 242.37 91.05 246.79 83.95 247.54 84.67 254.61 78.43 255.25 76.35 235.44"/>
      <path class="cls-2" d="M91.41,234l.44,4.14-8.68.93-.25.03.03.25.39,3.67.03.25.25-.03,6.85-.72.45,4.16-6.85.72-.25.03.03.25.7,6.82-5.99.62-2.06-19.56,14.92-1.56M91.63,233.72l-15.42,1.61,2.11,20.05,6.49-.67-.72-7.07,7.1-.75-.5-4.66-7.1.75-.39-3.67,8.93-.96-.5-4.63h0Z"/>
    </g>
    <g>
      <path d="M91.85,240.66l4.97-.5.33,2.93h.21l.05-.1c.55-2.29,1.84-3.51,3.97-3.73.1-.02.21-.03.35-.03.11,0,.21,0,.3.02l.58,5.5h-1.05c-2.19.23-3.29,1.48-3.29,3.73,0,.32.02.66.06,1.01l.51,4.95-5.49.56-1.5-14.34Z"/>
      <path class="cls-2" d="M101.73,239.35c.07,0,.13,0,.19,0l.56,5.26h-.94c-2.25.24-3.39,1.53-3.39,3.85,0,.33.02.67.06,1.02l.5,4.83-5.24.53-1.47-14.09,4.72-.48.31,2.69.05.22h.42l.05-.19c.53-2.24,1.79-3.42,3.88-3.64.07-.02.18-.02.31-.02M101.73,239.1c-.15,0-.27,0-.36.03-2.16.22-3.52,1.5-4.07,3.83h-.03l-.34-2.94-5.22.53,1.53,14.59,5.74-.58-.53-5.08c-.04-.35-.06-.68-.06-1,0-2.18,1.05-3.38,3.16-3.61h1.19l-.61-5.74c-.13-.02-.27-.03-.42-.03h0Z"/>
    </g>
    <g>
      <path d="M112.8,254.77l-.09-1.74-.19.14c-1.23.92-2.69,1.39-4.34,1.39-.39,0-.81-.03-1.23-.08-1.28-.16-2.35-.58-3.18-1.25-.91-.76-1.37-1.76-1.37-2.95,0-.21.02-.44.05-.67.16-1.38.77-2.39,1.8-3.02.79-.49,1.96-.79,3.47-.9,1.27-.04,2.54-.08,3.8-.14,1.23-.06,1.89-.41,1.98-1.05.06-.58-.21-1.01-.79-1.29-.42-.19-.94-.29-1.55-.29-.96,0-1.56.4-1.79,1.18l-5.26-.67c.29-2.03,1.51-3.22,3.74-3.65.6-.11,1.29-.17,2.04-.17s1.61.06,2.52.17c3.05.36,5.02,1.15,5.85,2.33.37.55.59,1.18.64,1.85.05.69.02,1.56-.11,2.58l-.83,6.79c-.06.47-.06.85,0,1.12.06.28.24.59.55.94l-.02.06-5.7-.7ZM112.87,248.25c-.4.13-1.07.25-2,.36-.89.08-1.52.2-1.94.37-.44.18-.7.59-.78,1.21-.05.36.02.66.21.91.27.35.8.58,1.56.67.14.02.27.03.4.03,1.52,0,2.43-1.15,2.71-3.41l.02-.19-.19.06Z"/>
      <path class="cls-2" d="M109.9,239.74c.75,0,1.6.06,2.51.17,3.02.36,4.96,1.13,5.76,2.28.36.54.57,1.14.62,1.79.05.68.02,1.54-.11,2.56l-.83,6.8c-.06.49-.06.88,0,1.16.06.26.2.53.43.82l-5.36-.65-.07-1.4-.02-.47-.38.28c-1.2.9-2.64,1.36-4.27,1.36-.39,0-.8-.03-1.21-.08-1.26-.16-2.31-.57-3.11-1.22-.89-.75-1.33-1.69-1.33-2.86,0-.21.02-.43.05-.66.16-1.35.73-2.31,1.74-2.92.78-.48,1.92-.77,3.4-.88,1.28-.04,2.55-.08,3.81-.14,1.3-.06,2-.45,2.1-1.17.05-.43-.07-1.03-.87-1.42-.44-.2-.98-.3-1.6-.3-1.18,0-1.67.59-1.87,1.17l-5.03-.64c.31-1.89,1.5-3.01,3.62-3.42.59-.11,1.27-.16,2.02-.16M110.32,251.91c1.59,0,2.54-1.18,2.83-3.52l.05-.39-.37.12c-.39.12-1.05.24-1.97.35-.9.08-1.55.2-1.98.38-.48.2-.77.64-.86,1.31-.05.39.03.73.24,1,.3.39.84.62,1.65.72.14.02.28.03.42.03M109.9,239.49c-.77,0-1.46.06-2.07.17-2.31.44-3.6,1.74-3.86,3.88l5.49.69c.18-.79.75-1.19,1.69-1.19.59,0,1.09.09,1.5.28.54.26.78.65.72,1.16-.08.57-.69.89-1.86.94-1.26.05-2.52.1-3.8.14-1.53.11-2.71.42-3.52.91-1.07.65-1.69,1.68-1.86,3.11-.04.24-.06.47-.06.69,0,1.24.47,2.26,1.41,3.05.85.68,1.93,1.11,3.24,1.28.43.05.84.08,1.24.08,1.69,0,3.16-.47,4.42-1.41l.08,1.61,5.91.72.03-.28c-.3-.33-.47-.63-.53-.89-.06-.26-.06-.62,0-1.08l.83-6.8c.13-1.04.17-1.9.11-2.61-.06-.7-.28-1.34-.67-1.91-.85-1.22-2.83-2.01-5.93-2.38-.92-.11-1.77-.17-2.54-.17h0ZM112.9,248.37c-.27,2.2-1.13,3.3-2.58,3.3-.12,0-.25,0-.39-.02-1.22-.15-1.78-.63-1.66-1.44.07-.57.31-.94.71-1.11.4-.17,1.03-.29,1.9-.36.94-.11,1.62-.23,2.02-.36h0Z"/>
    </g>
    <g>
      <path d="M118.65,241.43l4.99-.53.29,2.46.19-.38c.48-.97,1.3-1.78,2.42-2.42.74-.41,1.63-.62,2.66-.62,1.85,0,3.2.73,4.02,2.18l.11.2.11-.2c1.03-1.87,2.57-2.94,4.59-3.15.34-.04.66-.05.97-.05,2.03,0,3.45.79,4.23,2.34.43.89.73,2.03.88,3.4l.9,8.5-5.49.58-.76-7.33c-.11-.99-.28-1.67-.52-2.07-.31-.57-.83-.86-1.54-.86-.1,0-.21,0-.33.02-1.43.16-2.03,1.36-1.8,3.58l.76,7.12-5.49.56-.76-7.31c-.11-.99-.28-1.67-.51-2.07-.31-.57-.83-.86-1.54-.86-.1,0-.21,0-.33.02-1.42.16-2.03,1.36-1.8,3.58l.76,7.09-5.49.58-1.5-14.34Z"/>
      <path class="cls-2" d="M138.99,239.05h0c2.01,0,3.35.74,4.12,2.27.43.87.72,2,.86,3.35l.89,8.38-5.24.56-.75-7.21c-.11-1-.29-1.7-.53-2.11-.33-.61-.89-.93-1.65-.93-.11,0-.22,0-.34.02-1.51.17-2.15,1.42-1.91,3.71l.75,6.99-5.24.53-.75-7.19c-.12-1-.29-1.7-.53-2.11-.33-.61-.89-.93-1.65-.93-.11,0-.22,0-.34.02-1.51.17-2.15,1.42-1.91,3.71l.75,6.96-5.24.56-1.47-14.09,4.75-.5.23,1.92.1.83.37-.75c.47-.95,1.27-1.74,2.37-2.36.72-.4,1.59-.61,2.6-.61,1.82,0,3.1.69,3.91,2.12l.22.39.22-.39c1.02-1.86,2.49-2.87,4.49-3.09.33-.04.65-.05.96-.05M138.99,238.8c-.31,0-.64.02-.98.05-2.07.22-3.63,1.29-4.69,3.22-.85-1.5-2.23-2.25-4.13-2.25-1.05,0-1.96.21-2.72.64-1.15.65-1.97,1.47-2.47,2.47l-.25-2.16-5.24.56,1.53,14.59,5.74-.61-.78-7.21c-.22-2.14.34-3.29,1.69-3.44.11-.01.21-.02.31-.02.67,0,1.14.27,1.43.8.22.39.39,1.06.5,2.02l.78,7.43,5.74-.58-.78-7.24c-.22-2.14.34-3.29,1.69-3.44.11-.01.21-.02.31-.02.67,0,1.14.27,1.43.8.22.39.39,1.06.5,2.02l.78,7.46,5.74-.61-.91-8.63c-.15-1.39-.44-2.53-.89-3.44-.8-1.61-2.25-2.41-4.34-2.41h0Z"/>
    </g>
    <g>
      <path d="M152.09,254.95c-2.72,0-4.83-.92-6.25-2.73-1.01-1.3-1.53-2.96-1.53-4.92,0-2.7,1.11-4.78,3.3-6.19,1.44-.96,3.16-1.45,5.09-1.45h.11c2.92,0,5.15,1.18,6.64,3.5.78,1.24,1.28,2.74,1.49,4.46l-10.98,1.17v.13c.11.84.48,1.52,1.1,2.03.52.43,1.13.64,1.82.64.13,0,.26,0,.4-.02,1.05-.11,1.75-.63,2.07-1.53l5.25-.56c-.34,1.8-1.38,3.2-3.1,4.16-1.53.87-3.34,1.32-5.4,1.32ZM152.19,242.97c-1.19.13-1.98.65-2.35,1.52-.17.43-.23.91-.17,1.45v.12s5.47-.58,5.47-.58v-.12c-.07-.7-.4-1.29-.99-1.76-.52-.42-1.1-.63-1.73-.63-.08,0-.15,0-.23,0Z"/>
      <path class="cls-2" d="M152.71,239.8h.11c2.87,0,5.07,1.16,6.53,3.44.75,1.2,1.24,2.64,1.46,4.28l-10.73,1.14-.25.03.03.25c.1.87.48,1.58,1.13,2.11.55.45,1.18.67,1.9.67.13,0,.27,0,.41-.02,1.08-.11,1.8-.63,2.15-1.54l5-.53c-.36,1.68-1.37,2.99-3,3.91-1.51.86-3.31,1.3-5.34,1.3-2.68,0-4.75-.9-6.15-2.68-1-1.28-1.5-2.91-1.5-4.84,0-2.65,1.09-4.7,3.25-6.09,1.42-.95,3.11-1.43,5.02-1.43M149.57,246.2l.25-.03,5.21-.55.24-.03-.02-.24c-.06-.73-.41-1.36-1.02-1.85-.55-.44-1.15-.66-1.81-.66-.08,0-.16,0-.25.01-1.24.14-2.06.68-2.45,1.6-.18.44-.24.95-.18,1.51l.03.25M152.71,239.55c-1.97,0-3.69.49-5.16,1.47-2.24,1.44-3.36,3.54-3.36,6.3,0,2,.52,3.66,1.55,4.99,1.46,1.85,3.58,2.77,6.35,2.77,2.09,0,3.91-.44,5.46-1.33,1.81-1.02,2.87-2.49,3.19-4.41l-5.49.58c-.29.91-.96,1.41-2,1.52-.13.01-.26.02-.38.02-.65,0-1.23-.2-1.74-.62-.6-.49-.95-1.14-1.04-1.95l10.98-1.17c-.2-1.8-.71-3.34-1.53-4.64-1.52-2.37-3.76-3.55-6.74-3.55-.04,0-.07,0-.11,0h0ZM149.79,245.93c-.06-.52,0-.98.17-1.39.35-.83,1.1-1.31,2.25-1.44.07,0,.15,0,.22,0,.6,0,1.15.2,1.65.61.56.45.87,1.01.93,1.68l-5.21.55h0Z"/>
    </g>
    <g>
      <path d="M178.9,255.06c-.52,0-1.07-.03-1.64-.07-3.42-.31-5.86-1.65-7.25-3.99-.61-1.02-.9-2.11-.87-3.24l6.01.51c.1.67.42,1.23.98,1.67.52.4,1.15.64,1.87.72.24.02.47.03.67.03,1.45,0,2.22-.48,2.29-1.42.06-.69-.76-1.4-2.52-2.15l-3.39-1.22c-3.18-1.18-4.8-3.05-4.8-5.57,0-1.3.3-2.42.9-3.34.96-1.5,2.54-2.43,4.71-2.77.66-.11,1.35-.17,2.06-.17.46,0,.93.02,1.4.06,3.39.31,5.72,1.55,6.92,3.68.54.94.85,2,.92,3.16l-5.94-.5c-.12-1.18-.99-1.85-2.57-1.98-.2-.02-.39-.03-.56-.03-1.1,0-1.69.37-1.76,1.11-.06.68.77,1.38,2.54,2.15l3.39,1.22c3.17,1.18,4.78,3,4.8,5.43.02,1.73-.48,3.18-1.49,4.3-1.43,1.6-3.68,2.42-6.66,2.42Z"/>
      <path class="cls-2" d="M177.91,234.17c.44,0,.91.02,1.39.05,3.35.3,5.65,1.52,6.82,3.62.51.88.8,1.88.89,2.96l-5.69-.48c-.16-1.19-1.06-1.85-2.67-1.99-.21-.02-.4-.03-.58-.03-1.46,0-1.83.67-1.89,1.23-.07.75.76,1.47,2.63,2.28l.72.26,2.66.96c3.16,1.17,4.7,2.91,4.72,5.31.02,1.7-.47,3.12-1.46,4.21-1.41,1.58-3.62,2.38-6.57,2.38-.52,0-1.07-.02-1.63-.07-3.38-.31-5.78-1.63-7.16-3.93-.57-.96-.86-1.98-.86-3.04l5.78.49c.12.66.46,1.21,1.01,1.66.54.42,1.18.67,1.94.75.24.02.47.03.68.03,1.9,0,2.37-.84,2.42-1.53.07-.77-.76-1.49-2.6-2.28l-2.08-.75-1.3-.47c-3.17-1.17-4.72-2.96-4.72-5.45,0-1.27.29-2.38.88-3.28.94-1.47,2.49-2.38,4.63-2.72.65-.11,1.33-.16,2.04-.16M177.91,233.92c-.72,0-1.41.06-2.08.17-2.22.35-3.82,1.29-4.8,2.83-.61.94-.91,2.08-.91,3.41,0,2.59,1.63,4.48,4.88,5.69,1.13.41,2.26.81,3.38,1.22,1.68.72,2.49,1.4,2.44,2.02-.07.87-.79,1.3-2.17,1.3-.21,0-.43,0-.66-.03-.7-.07-1.3-.31-1.8-.69-.55-.44-.87-1.01-.94-1.69l-6.24-.53c-.06,1.2.24,2.35.89,3.44,1.42,2.38,3.87,3.73,7.35,4.05.57.05,1.12.07,1.65.07,3.04,0,5.29-.82,6.75-2.46,1.04-1.15,1.54-2.61,1.52-4.38-.02-2.5-1.64-4.35-4.88-5.55-1.13-.41-2.26-.81-3.38-1.22-1.7-.74-2.52-1.42-2.47-2.03.06-.67.61-1,1.64-1,.17,0,.36,0,.55.03,1.57.13,2.4.79,2.47,1.97l6.18.53c-.06-1.24-.37-2.36-.94-3.36-1.22-2.18-3.56-3.43-7.02-3.74-.48-.04-.95-.06-1.41-.06h0Z"/>
    </g>
    <g>
      <path d="M195.67,255.06c-1.08-.06-2.14-.15-3.15-.27-1.24-.15-2.16-.34-2.74-.57-1-.41-1.57-1.02-1.73-1.85-.07-.33-.11-.74-.11-1.23,0-.58.05-1.28.16-2.09l.74-6.23-2.02-.24.38-3.08,2.11.28.56-4.55,5.41.66-.56,4.55,2.75.33-.38,3.08-2.75-.36-.68,5.42c-.06.48-.06.85,0,1.15.1.55.67.9,1.69,1.04l.79.1-.47,3.86Z"/>
      <path class="cls-2" d="M189.97,235.36l5.16.63-.52,4.3-.03.25.25.03,2.5.3-.35,2.83-2.5-.33-.25-.03-.03.25-.67,5.3c-.06.49-.06.88,0,1.18.11.61.72,1,1.8,1.14l.67.08-.44,3.63c-1.03-.06-2.05-.14-3.02-.26-1.23-.14-2.14-.33-2.71-.57-.96-.4-1.5-.97-1.65-1.77-.07-.31-.1-.71-.1-1.2,0-.57.05-1.27.16-2.08l.72-6.11.03-.25-.25-.03-1.78-.21.35-2.83,1.86.24.25.03.03-.25.52-4.3M189.76,235.08l-.56,4.55-2.11-.28-.42,3.33,2.03.24-.72,6.11c-.11.81-.17,1.52-.17,2.11,0,.5.04.91.11,1.25.17.87.77,1.52,1.8,1.94.59.24,1.52.43,2.77.58,1.05.13,2.14.22,3.27.28l.5-4.1-.91-.11c-.96-.13-1.49-.44-1.58-.94-.06-.28-.06-.65,0-1.11l.67-5.3,2.75.36.42-3.33-2.75-.33.56-4.55-5.66-.69h0Z"/>
    </g>
    <g>
      <path d="M203.54,255.32c-2.77,0-4.39-1.71-4.95-5.24l-1.37-8.68,5.44-.85,1.23,7.7c.26,1.62.98,2.44,2.15,2.44.15,0,.3-.01.46-.04.58-.09,1.03-.34,1.33-.76.48-.66.61-1.75.38-3.23l-1.06-6.84,5.44-.85,2.26,14.23-5.04.79-.38-2.4-.17.35c-.69,1.38-1.58,2.3-2.65,2.75-1,.41-2.03.62-3.06.62Z"/>
      <path class="cls-2" d="M212.49,239.11l2.22,13.98-4.79.75-.3-1.89-.12-.77-.35.7c-.67,1.35-1.54,2.25-2.59,2.69-.98.41-2,.61-3.01.61-2.69,0-4.27-1.68-4.83-5.13l-1.35-8.56,5.19-.81,1.21,7.57c.27,1.69,1.03,2.55,2.27,2.55.15,0,.31-.01.48-.04.61-.09,1.09-.37,1.42-.81.51-.7.64-1.79.4-3.33l-1.04-6.71,5.19-.81M212.69,238.83l-5.68.89,1.08,6.96c.37,2.35-.17,3.63-1.61,3.86-.15.03-.3.04-.44.04-1.11,0-1.78-.78-2.03-2.34l-1.25-7.82-5.68.89,1.39,8.8c.57,3.56,2.26,5.34,5.08,5.34,1.05,0,2.09-.21,3.11-.63,1.11-.46,2.02-1.39,2.72-2.81l.34,2.13,5.29-.83-2.3-14.48h0Z"/>
    </g>
    <g>
      <path d="M221.71,255.15c-2.49,0-4.34-1.2-5.49-3.56-.4-.84-.69-1.78-.85-2.79-.51-3.16.11-5.61,1.85-7.29.79-.79,1.75-1.27,2.84-1.44.45-.07.86-.11,1.26-.11,1.16,0,2.25.42,3.22,1.25l.26.22-1.12-7.09,5.44-.85,3.12,19.67-4.85.76-.38-2.18-.17.32c-.92,1.71-2.24,2.72-3.93,2.99-.42.07-.83.11-1.2.11ZM223.26,243.89c-.85,0-1.5.27-1.93.79-.31.41-.5.89-.58,1.45-.06.55-.04,1.13.05,1.73.33,2.06,1.15,3.1,2.46,3.1,1.18,0,1.97-.47,2.36-1.41.23-.49.34-1.05.34-1.66,0-.28-.03-.58-.08-.91-.32-2.05-1.21-3.1-2.62-3.1Z"/>
      <path class="cls-2" d="M229.02,233.62l3.08,19.42-4.61.73-.29-1.7-.12-.71-.34.64c-.91,1.7-2.17,2.66-3.85,2.92-.41.07-.81.11-1.18.11-2.47,0-4.23-1.14-5.38-3.49-.4-.83-.68-1.76-.84-2.76-.5-3.12.11-5.53,1.82-7.19.77-.77,1.7-1.24,2.78-1.4.43-.07.85-.11,1.24-.11,1.13,0,2.19.41,3.14,1.22l.51.44-.1-.67-1.04-6.63,5.19-.81M223.26,251.09c1.23,0,2.07-.5,2.47-1.48.24-.51.36-1.09.36-1.71,0-.28-.03-.6-.09-.93-.33-2.13-1.26-3.21-2.74-3.21-.89,0-1.57.28-2.03.85-.32.42-.52.93-.6,1.51-.06.55-.04,1.15.06,1.76.34,2.13,1.2,3.21,2.58,3.21M229.22,233.33l-5.69.89,1.08,6.88c-1-.85-2.1-1.28-3.3-1.28-.41,0-.83.04-1.28.11-1.13.17-2.1.66-2.91,1.47-1.77,1.72-2.4,4.19-1.89,7.4.17,1.04.45,1.98.86,2.83,1.18,2.42,3.05,3.63,5.6,3.63.39,0,.79-.04,1.22-.11,1.74-.28,3.08-1.29,4.02-3.05l.34,1.94,5.1-.8-3.16-19.91h0ZM223.26,250.84c-1.24,0-2.02-1-2.33-3-.09-.59-.11-1.16-.05-1.69.07-.54.26-1,.55-1.39.41-.5,1.02-.75,1.83-.75,1.35,0,2.18,1,2.5,2.99.05.31.08.61.08.89,0,.59-.11,1.13-.33,1.61-.37.89-1.12,1.33-2.25,1.33h0Z"/>
    </g>
    <g>
      <path d="M232.36,240.57l5.44-.85,2.26,14.23-5.44.88-2.26-14.26ZM231.42,234.63l5.44-.88.62,3.83-5.46.88-.6-3.83Z"/>
      <path class="cls-2" d="M236.75,233.9l.58,3.58-5.22.84-.56-3.59,5.19-.84M237.69,239.86l2.22,13.99-5.19.84-2.22-14.01,5.19-.81M236.96,233.61l-5.69.91.64,4.08,5.71-.92-.67-4.08h0ZM237.9,239.57l-5.68.89,2.3,14.51,5.68-.91-2.3-14.48h0Z"/>
    </g>
    <g>
      <path d="M248.3,254.98c-2.52,0-4.5-.84-5.9-2.51-.85-1-1.39-2.3-1.61-3.88-.07-.51-.11-1.01-.11-1.48,0-2.57.99-4.54,2.94-5.86,1.12-.78,2.51-1.29,4.11-1.5.54-.07,1.08-.11,1.62-.11,1.81,0,3.37.45,4.62,1.34,1.61,1.12,2.58,2.82,2.89,5.05.36,2.5-.13,4.55-1.47,6.08-1.61,1.9-4,2.87-7.09,2.87ZM248.67,243.34c-.11,0-.21,0-.32.02-.94.14-1.58.67-1.93,1.58-.27.72-.33,1.59-.2,2.58.35,2.48,1.28,3.74,2.77,3.74h0c.13,0,.26,0,.39-.03,1.42-.21,2.13-1.26,2.13-3.12,0-.4-.04-.83-.11-1.32-.13-.96-.42-1.76-.85-2.38-.49-.71-1.12-1.07-1.87-1.07Z"/>
      <path class="cls-2" d="M249.36,239.77c1.79,0,3.32.44,4.54,1.31,1.58,1.1,2.53,2.77,2.84,4.96.36,2.46-.13,4.48-1.44,5.99-1.59,1.87-3.94,2.82-6.99,2.82-2.48,0-4.43-.83-5.8-2.46-.83-.98-1.36-2.26-1.58-3.81-.07-.51-.11-1-.11-1.46,0-2.52.97-4.46,2.89-5.76,1.11-.77,2.47-1.27,4.05-1.48.54-.07,1.08-.11,1.6-.11M248.98,251.39c.13,0,.27,0,.41-.03,1.49-.22,2.24-1.31,2.24-3.24,0-.4-.04-.84-.11-1.34-.13-.98-.43-1.8-.87-2.44-.52-.75-1.18-1.13-1.98-1.13-.11,0-.22,0-.35.02-.98.14-1.66.7-2.03,1.66-.27.74-.34,1.63-.21,2.64.36,2.55,1.33,3.85,2.9,3.85M249.36,239.52c-.54,0-1.08.04-1.64.11-1.63.22-3.01.73-4.16,1.53-2,1.35-3,3.34-3,5.96,0,.48.04.98.11,1.5.22,1.61.77,2.92,1.64,3.94,1.42,1.7,3.42,2.55,5.99,2.55,3.14,0,5.54-.97,7.18-2.91,1.37-1.57,1.87-3.63,1.5-6.18-.31-2.28-1.29-3.98-2.94-5.13-1.28-.91-2.84-1.36-4.69-1.36h0ZM248.98,251.14c-1.43,0-2.31-1.21-2.65-3.63-.13-.98-.06-1.82.19-2.52.33-.87.94-1.37,1.83-1.5.11-.01.21-.02.31-.02.71,0,1.3.34,1.77,1.02.42.61.7,1.39.83,2.33.07.48.11.91.11,1.3,0,1.8-.68,2.79-2.03,3-.13.02-.25.03-.37.03h0Z"/>
    </g>
  </g>
</svg>